# xmcd
#
# Track frame offsets:
#	150
#	16985
#	31793
#	58897
#
# Disc length: 1256 seconds
#
# Revision: 0
# Processed by: cddbd v1.5.1PL2 Copyright (c) Steve Scherf et al.
# Submitted via: dBpowerAMP V4.0
#
DISCID=2904e604
DTITLE=Phil Vassar - Greatest Hits
DYEAR=2006
DGENRE=Country
TTITLE0=Right on the Money
TTITLE1=You Make it look Easy
TTITLE2=Perfect World
TTITLE3=DATA
EXTD=
EXTT0=
EXTT1=
EXTT2=
EXTT3=
PLAYORDER=
